<mxfile host="65bd71144e" pages="2">
    <diagram name="科目マスタ" id="EV0tBTVT23wzSEnfqWIt">
        <mxGraphModel dx="1130" dy="455" grid="1" gridSize="10" guides="1" tooltips="1" connect="1" arrows="1" fold="1" page="1" pageScale="1" pageWidth="827" pageHeight="1169" math="0" shadow="0">
            <root>
                <mxCell id="0"/>
                <mxCell id="1" parent="0"/>
                <mxCell id="sOer2HirYU1rtKxV-aLZ-1" value="" style="rounded=0;whiteSpace=wrap;html=1;" parent="1" vertex="1">
                    <mxGeometry x="40" y="40" width="720" height="570" as="geometry"/>
                </mxCell>
                <mxCell id="GWyXPBBjILGHu15RxYsL-1" value="科目名" style="rounded=0;whiteSpace=wrap;html=1;" parent="1" vertex="1">
                    <mxGeometry x="80" y="160" width="450" height="40" as="geometry"/>
                </mxCell>
                <mxCell id="GWyXPBBjILGHu15RxYsL-2" value="科目一覧" style="rounded=0;whiteSpace=wrap;html=1;" parent="1" vertex="1">
                    <mxGeometry x="80" y="280" width="650" height="270" as="geometry"/>
                </mxCell>
                <mxCell id="GWyXPBBjILGHu15RxYsL-3" value="登録ボタン" style="rounded=0;whiteSpace=wrap;html=1;" parent="1" vertex="1">
                    <mxGeometry x="600" y="160" width="130" height="40" as="geometry"/>
                </mxCell>
                <mxCell id="GWyXPBBjILGHu15RxYsL-5" value="科目マスタ" style="text;html=1;strokeColor=none;fillColor=none;align=left;verticalAlign=middle;whiteSpace=wrap;rounded=0;fontStyle=1;fontSize=24;" parent="1" vertex="1">
                    <mxGeometry x="80" y="80" width="240" height="40" as="geometry"/>
                </mxCell>
            </root>
        </mxGraphModel>
    </diagram>
    <diagram id="ODUGqKfVJqsv2JjBVL2w" name="課題登録画面">
        <mxGraphModel dx="1130" dy="455" grid="1" gridSize="10" guides="1" tooltips="1" connect="1" arrows="1" fold="1" page="1" pageScale="1" pageWidth="827" pageHeight="1169" math="0" shadow="0">
            <root>
                <mxCell id="0"/>
                <mxCell id="1" parent="0"/>
                <mxCell id="zLwrgIFtDSkHQkqauWHI-1" value="" style="rounded=0;whiteSpace=wrap;html=1;" parent="1" vertex="1">
                    <mxGeometry x="40" y="40" width="720" height="570" as="geometry"/>
                </mxCell>
                <mxCell id="zLwrgIFtDSkHQkqauWHI-2" value="科目マスタ選択セレクトボックス" style="rounded=0;whiteSpace=wrap;html=1;" parent="1" vertex="1">
                    <mxGeometry x="80" y="160" width="450" height="40" as="geometry"/>
                </mxCell>
                <mxCell id="zLwrgIFtDSkHQkqauWHI-4" value="登録ボタン" style="rounded=0;whiteSpace=wrap;html=1;" parent="1" vertex="1">
                    <mxGeometry x="590" y="520" width="130" height="40" as="geometry"/>
                </mxCell>
                <mxCell id="zLwrgIFtDSkHQkqauWHI-5" value="課題登録" style="text;html=1;strokeColor=none;fillColor=none;align=left;verticalAlign=middle;whiteSpace=wrap;rounded=0;fontStyle=1;fontSize=24;" parent="1" vertex="1">
                    <mxGeometry x="80" y="80" width="240" height="40" as="geometry"/>
                </mxCell>
                <mxCell id="kqnNOeYzr0oes4tPgAR8-1" value="題名" style="rounded=0;whiteSpace=wrap;html=1;" parent="1" vertex="1">
                    <mxGeometry x="80" y="240" width="450" height="40" as="geometry"/>
                </mxCell>
                <mxCell id="kqnNOeYzr0oes4tPgAR8-2" value="コード(見本)" style="rounded=0;whiteSpace=wrap;html=1;" parent="1" vertex="1">
                    <mxGeometry x="80" y="320" width="450" height="40" as="geometry"/>
                </mxCell>
            </root>
        </mxGraphModel>
    </diagram>
</mxfile>